<svg xmlns="http://www.w3.org/2000/svg" width="1200" height="750" viewBox="0 0 1200 750">
  <rect width="1200" height="750" fill="#0f2d52"/>
  <rect x="35" y="35" width="1130" height="680" rx="20" fill="#123e6d" stroke="#6ea8dc" stroke-width="3"/>
  <text x="70" y="95" fill="#e2e8f0" font-size="42" font-family="Arial, sans-serif" font-weight="700">Blueprint Flow Board</text>

  <g fill="none" stroke="#93c5fd" stroke-width="3">
    <path d="M130 180 H1070"/>
    <path d="M130 300 H1070"/>
    <path d="M130 420 H1070"/>
    <path d="M130 540 H1070"/>
    <path d="M130 180 V600"/>
    <path d="M330 180 V600"/>
    <path d="M530 180 V600"/>
    <path d="M730 180 V600"/>
    <path d="M930 180 V600"/>
    <path d="M1070 180 V600"/>
  </g>

  <g font-family="Arial, sans-serif">
    <rect x="170" y="220" width="140" height="70" rx="10" fill="#1d4ed8" stroke="#f8fafc"/>
    <text x="240" y="264" text-anchor="middle" fill="#f8fafc" font-size="24">Input</text>

    <rect x="370" y="340" width="140" height="70" rx="10" fill="#1d4ed8" stroke="#f8fafc"/>
    <text x="440" y="384" text-anchor="middle" fill="#f8fafc" font-size="24">Analyze</text>

    <rect x="570" y="220" width="140" height="70" rx="10" fill="#1d4ed8" stroke="#f8fafc"/>
    <text x="640" y="264" text-anchor="middle" fill="#f8fafc" font-size="24">Route</text>

    <rect x="770" y="340" width="140" height="70" rx="10" fill="#1d4ed8" stroke="#f8fafc"/>
    <text x="840" y="384" text-anchor="middle" fill="#f8fafc" font-size="24">Build</text>

    <rect x="970" y="220" width="140" height="70" rx="10" fill="#1d4ed8" stroke="#f8fafc"/>
    <text x="1040" y="264" text-anchor="middle" fill="#f8fafc" font-size="24">Output</text>
  </g>

  <g stroke="#fbbf24" stroke-width="6" fill="none" marker-end="url(#arrow)">
    <defs>
      <marker id="arrow" markerWidth="10" markerHeight="7" refX="10" refY="3.5" orient="auto">
        <polygon points="0 0, 10 3.5, 0 7" fill="#fbbf24"/>
      </marker>
    </defs>
    <path d="M310 255 H370"/>
    <path d="M510 375 H570"/>
    <path d="M710 255 H770"/>
    <path d="M910 375 H970"/>
  </g>

  <text x="70" y="680" fill="#cbd5e1" font-size="24" font-family="Arial, sans-serif">Local SVG asset (non-binary) to keep PR pipeline compatible.</text>
</svg>
